<mxfile host="app.diagrams.net" modified="2020-11-22T13:48:40.819Z" agent="5.0 (Windows NT 10.0; Win64; x64) AppleWebKit/537.36 (KHTML, like Gecko) Chrome/86.0.4240.198 Safari/537.36" etag="hqZ51TacMHfq_MMhDwhb" version="13.10.0" type="github">
  <diagram id="UgRn8gZgCoCBMlLPngiJ" name="Page-1">
    <mxGraphModel dx="1221" dy="578" grid="1" gridSize="10" guides="1" tooltips="1" connect="1" arrows="1" fold="1" page="1" pageScale="1" pageWidth="827" pageHeight="1169" math="0" shadow="0">
      <root>
        <mxCell id="0" />
        <mxCell id="1" parent="0" />
        <mxCell id="aYTFEp3mWHrDZpUiHn0n-1" value="system" style="rounded=0;whiteSpace=wrap;html=1;" vertex="1" parent="1">
          <mxGeometry x="470" y="100" width="80" height="30" as="geometry" />
        </mxCell>
        <mxCell id="aYTFEp3mWHrDZpUiHn0n-2" value="Robot_actor" style="shape=umlActor;verticalLabelPosition=bottom;verticalAlign=top;html=1;outlineConnect=0;" vertex="1" parent="1">
          <mxGeometry x="270" y="70" width="20" height="40" as="geometry" />
        </mxCell>
        <mxCell id="aYTFEp3mWHrDZpUiHn0n-5" value="" style="endArrow=none;dashed=1;html=1;dashPattern=1 3;strokeWidth=2;" edge="1" parent="1" source="aYTFEp3mWHrDZpUiHn0n-18">
          <mxGeometry width="50" height="50" relative="1" as="geometry">
            <mxPoint x="505" y="415" as="sourcePoint" />
            <mxPoint x="505.40999999999997" y="140" as="targetPoint" />
          </mxGeometry>
        </mxCell>
        <mxCell id="aYTFEp3mWHrDZpUiHn0n-6" value="" style="rounded=0;whiteSpace=wrap;html=1;" vertex="1" parent="1">
          <mxGeometry x="500" y="150" width="10" height="70" as="geometry" />
        </mxCell>
        <mxCell id="aYTFEp3mWHrDZpUiHn0n-9" value="" style="endArrow=none;dashed=1;html=1;dashPattern=1 3;strokeWidth=2;" edge="1" parent="1" source="aYTFEp3mWHrDZpUiHn0n-14">
          <mxGeometry width="50" height="50" relative="1" as="geometry">
            <mxPoint x="280" y="520" as="sourcePoint" />
            <mxPoint x="279.8199999999999" y="140" as="targetPoint" />
          </mxGeometry>
        </mxCell>
        <mxCell id="aYTFEp3mWHrDZpUiHn0n-15" value="" style="rounded=0;whiteSpace=wrap;html=1;" vertex="1" parent="1">
          <mxGeometry x="275" y="150" width="10" height="70" as="geometry" />
        </mxCell>
        <mxCell id="aYTFEp3mWHrDZpUiHn0n-16" value="" style="endArrow=classic;html=1;entryX=1;entryY=0.25;entryDx=0;entryDy=0;exitX=0;exitY=0.25;exitDx=0;exitDy=0;" edge="1" parent="1" source="aYTFEp3mWHrDZpUiHn0n-6" target="aYTFEp3mWHrDZpUiHn0n-15">
          <mxGeometry width="50" height="50" relative="1" as="geometry">
            <mxPoint x="520" y="160" as="sourcePoint" />
            <mxPoint x="290" y="190" as="targetPoint" />
          </mxGeometry>
        </mxCell>
        <mxCell id="aYTFEp3mWHrDZpUiHn0n-17" value="subscriber(scan_callback)" style="edgeLabel;html=1;align=center;verticalAlign=middle;resizable=0;points=[];" vertex="1" connectable="0" parent="aYTFEp3mWHrDZpUiHn0n-16">
          <mxGeometry x="-0.2475" y="2" relative="1" as="geometry">
            <mxPoint as="offset" />
          </mxGeometry>
        </mxCell>
        <mxCell id="aYTFEp3mWHrDZpUiHn0n-18" value="" style="rounded=0;whiteSpace=wrap;html=1;" vertex="1" parent="1">
          <mxGeometry x="500" y="260" width="10" height="200" as="geometry" />
        </mxCell>
        <mxCell id="aYTFEp3mWHrDZpUiHn0n-20" value="" style="endArrow=none;dashed=1;html=1;dashPattern=1 3;strokeWidth=2;" edge="1" parent="1" target="aYTFEp3mWHrDZpUiHn0n-18">
          <mxGeometry width="50" height="50" relative="1" as="geometry">
            <mxPoint x="505" y="490" as="sourcePoint" />
            <mxPoint x="505.4099999999996" y="140" as="targetPoint" />
          </mxGeometry>
        </mxCell>
        <mxCell id="aYTFEp3mWHrDZpUiHn0n-14" value="" style="rounded=0;whiteSpace=wrap;html=1;" vertex="1" parent="1">
          <mxGeometry x="275" y="260" width="10" height="210" as="geometry" />
        </mxCell>
        <mxCell id="aYTFEp3mWHrDZpUiHn0n-21" value="" style="endArrow=none;dashed=1;html=1;dashPattern=1 3;strokeWidth=2;" edge="1" parent="1" target="aYTFEp3mWHrDZpUiHn0n-14">
          <mxGeometry width="50" height="50" relative="1" as="geometry">
            <mxPoint x="280" y="490" as="sourcePoint" />
            <mxPoint x="279.81999999999994" y="140" as="targetPoint" />
          </mxGeometry>
        </mxCell>
        <mxCell id="aYTFEp3mWHrDZpUiHn0n-22" value="" style="endArrow=classic;html=1;entryX=0;entryY=0.75;entryDx=0;entryDy=0;" edge="1" parent="1" target="aYTFEp3mWHrDZpUiHn0n-25">
          <mxGeometry width="50" height="50" relative="1" as="geometry">
            <mxPoint x="290" y="450" as="sourcePoint" />
            <mxPoint x="530" y="274" as="targetPoint" />
          </mxGeometry>
        </mxCell>
        <mxCell id="aYTFEp3mWHrDZpUiHn0n-23" value="publisher(cmd_vel)" style="text;html=1;strokeColor=none;fillColor=none;align=center;verticalAlign=middle;whiteSpace=wrap;rounded=0;" vertex="1" parent="1">
          <mxGeometry x="413" y="430" width="40" height="20" as="geometry" />
        </mxCell>
        <mxCell id="aYTFEp3mWHrDZpUiHn0n-25" value="" style="rounded=0;whiteSpace=wrap;html=1;" vertex="1" parent="1">
          <mxGeometry x="505" y="420" width="10" height="40" as="geometry" />
        </mxCell>
        <mxCell id="aYTFEp3mWHrDZpUiHn0n-27" value="" style="endArrow=classic;html=1;entryX=0;entryY=0.5;entryDx=0;entryDy=0;" edge="1" parent="1" target="aYTFEp3mWHrDZpUiHn0n-38">
          <mxGeometry width="50" height="50" relative="1" as="geometry">
            <mxPoint x="510" y="275" as="sourcePoint" />
            <mxPoint x="640" y="275" as="targetPoint" />
          </mxGeometry>
        </mxCell>
        <mxCell id="aYTFEp3mWHrDZpUiHn0n-28" value="send_goal(movebase)" style="text;html=1;strokeColor=none;fillColor=none;align=center;verticalAlign=middle;whiteSpace=wrap;rounded=0;" vertex="1" parent="1">
          <mxGeometry x="580" y="250" width="40" height="20" as="geometry" />
        </mxCell>
        <mxCell id="aYTFEp3mWHrDZpUiHn0n-30" value="goal_actor" style="shape=umlActor;verticalLabelPosition=bottom;verticalAlign=top;html=1;outlineConnect=0;" vertex="1" parent="1">
          <mxGeometry x="660" y="70" width="20" height="30" as="geometry" />
        </mxCell>
        <mxCell id="aYTFEp3mWHrDZpUiHn0n-35" value="" style="endArrow=none;dashed=1;html=1;" edge="1" parent="1" source="aYTFEp3mWHrDZpUiHn0n-38">
          <mxGeometry width="50" height="50" relative="1" as="geometry">
            <mxPoint x="669" y="490" as="sourcePoint" />
            <mxPoint x="669.41" y="140" as="targetPoint" />
          </mxGeometry>
        </mxCell>
        <mxCell id="aYTFEp3mWHrDZpUiHn0n-38" value="" style="rounded=0;whiteSpace=wrap;html=1;" vertex="1" parent="1">
          <mxGeometry x="665" y="240" width="10" height="70" as="geometry" />
        </mxCell>
        <mxCell id="aYTFEp3mWHrDZpUiHn0n-39" value="" style="endArrow=none;dashed=1;html=1;" edge="1" parent="1" target="aYTFEp3mWHrDZpUiHn0n-38">
          <mxGeometry width="50" height="50" relative="1" as="geometry">
            <mxPoint x="669" y="490" as="sourcePoint" />
            <mxPoint x="669.4099999999999" y="140" as="targetPoint" />
          </mxGeometry>
        </mxCell>
      </root>
    </mxGraphModel>
  </diagram>
</mxfile>
